<?xml version="1.0" standalone="no"?><!DOCTYPE svg PUBLIC "-//W3C//DTD SVG 1.1//EN" "http://www.w3.org/Graphics/SVG/1.1/DTD/svg11.dtd"><svg t="1764049733294" class="icon" viewBox="0 0 1024 1024" version="1.1" xmlns="http://www.w3.org/2000/svg" p-id="7242" xmlns:xlink="http://www.w3.org/1999/xlink" width="200" height="200"><path d="M85.3 534.3c86.1 97.3 482.4 464.7 860.6-0.7 6.1-7.5 6.1-18.5 0-25.9-378.1-465.3-774.5-98-860.6-0.7-6.8 7.7-6.8 19.6 0 27.3z m434.2-51.4c0 42.6-32.9 77.2-73.4 77.2s-73.4-34.5-73.4-77.2c0-42.6 32.9-77.2 73.4-77.2s73.4 34.6 73.4 77.2z m-378.9 24c43.3-48.5 167.7-165.9 325.6-193.4-78.3 20.9-135.9 90.9-135.9 173.9 0 99.6 82.7 180.3 184.7 180.3S699.8 587 699.8 487.4c0-94.9-75-172.6-170.3-179.8 112.7-1 238.1 49.1 361.3 200 6.1 7.5 6.1 18.5 0 26-328.3 402-671.8 88.4-750.2 0.7-7-7.7-6.9-19.7 0-27.4z" fill="#4e5969" p-id="7243"></path></svg>